<svg width="557" height="493" viewBox="0 0 557 493" fill="none" xmlns="http://www.w3.org/2000/svg">
<mask id="mask0_409_2206" style="mask-type:alpha" maskUnits="userSpaceOnUse" x="0" y="-64" width="556" height="556">
<circle cx="277.587" cy="213.587" r="277.587" fill="#D9D9D9"/>
</mask>
<g mask="url(#mask0_409_2206)">
<path d="M429.764 442.761C428.49 443.671 427.034 444.581 425.76 445.491C424.303 446.401 423.029 447.311 421.573 448.04C420.299 448.768 419.207 449.496 417.932 450.224C417.75 450.406 417.568 450.406 417.386 450.588C413.2 453.136 408.831 455.503 404.463 457.687C403.188 458.415 401.732 459.143 400.458 459.689C400.458 459.689 400.276 459.871 400.094 459.871C398.638 460.599 397.181 461.328 395.725 462.056C392.813 463.512 389.718 464.786 386.806 466.06C385.35 466.788 383.712 467.334 382.255 467.88C380.799 468.427 379.161 469.155 377.705 469.701C376.248 470.247 374.61 470.975 373.154 471.521C373.154 471.521 373.154 471.521 372.972 471.521C371.516 472.067 369.878 472.613 368.421 473.159C365.145 474.251 361.686 475.344 358.41 476.436C357.318 476.8 356.044 477.164 354.951 477.528C351.493 478.62 348.034 479.53 344.576 480.258C343.302 480.622 342.028 480.804 340.571 481.168C337.295 481.896 333.836 482.625 330.56 483.353C329.832 483.535 329.286 483.535 328.558 483.717C327.465 483.899 326.191 484.081 325.099 484.263C323.461 484.445 322.005 484.809 320.366 484.991C319.638 485.173 318.91 485.173 318.182 485.355C317.272 485.537 316.18 485.719 315.088 485.719C312.175 486.083 309.081 486.447 306.168 486.811C305.258 486.993 304.166 486.993 303.256 487.175H303.074C301.8 487.357 300.526 487.357 299.251 487.539C297.977 487.721 296.703 487.721 295.429 487.721C294.701 487.721 293.791 487.903 293.063 487.903C291.606 487.903 290.332 488.085 289.058 488.085C287.238 488.085 285.599 488.267 283.779 488.267C281.959 488.267 280.321 488.267 278.5 488.267C277.226 488.267 275.952 488.267 274.678 488.267C197.863 487.175 128.875 454.593 79.5459 402.897C79.5459 402.897 79.5459 402.715 79.3638 402.715C73.903 397.8 78.6357 371.589 100.661 355.024C128.329 334.091 194.586 320.985 194.586 320.985C194.586 320.985 220.252 316.799 315.452 336.64C371.152 348.289 413.564 365.218 437.227 411.088C442.142 420.554 447.057 435.116 429.764 442.761Z" fill="white"/>
<path d="M315.998 334.637C350.947 341.736 388.262 349.381 417.022 372.499C426.67 380.326 433.04 391.794 438.319 402.897C440.868 408.358 443.416 414.001 445.418 420.008C446.51 424.012 448.149 428.563 447.239 433.296C447.057 434.57 445.964 436.208 445.054 437.118C440.868 441.305 436.317 443.853 431.766 447.129C405.008 465.696 374.246 478.802 342.392 485.719C271.401 501.191 194.586 489.178 132.151 451.862C111.4 439.302 92.2876 424.012 75.9052 405.992C74.085 403.807 74.085 400.167 74.085 397.8C74.267 392.34 75.7232 387.061 77.5435 382.146C81.9121 370.861 87.5549 359.575 97.2023 351.748C104.119 347.015 111.582 343.011 119.227 339.734C143.255 329.541 168.557 322.442 194.586 319.529C196.771 319.347 197.135 322.442 194.95 322.806C170.013 327.902 145.257 335.547 122.14 345.923C113.767 350.11 104.847 353.75 98.1124 360.303C91.7415 367.22 87.1908 375.775 83.5503 384.513C81.184 389.791 79.5457 398.165 80.2738 402.351C91.7415 416.003 105.211 428.017 119.774 438.392C199.501 494.092 320.548 497.733 405.373 451.316C413.018 447.13 420.481 442.397 427.58 437.482C431.038 435.116 434.679 433.114 437.409 430.383C437.591 430.201 437.409 430.383 437.409 430.565C437.409 430.747 437.227 430.929 437.227 430.929C437.409 428.745 436.681 425.832 435.771 422.92C432.494 412.363 427.216 401.259 421.573 391.612C412.654 377.231 397.545 368.13 382.255 360.849C371.698 355.934 360.594 352.112 349.308 348.471C338.023 344.831 326.555 341.736 315.088 339.006C312.175 338.278 313.085 334.091 315.998 334.637Z" fill="black"/>
<path d="M454.701 468.608C451.242 441.668 435.952 396.344 426.669 384.148C416.475 370.86 412.289 366.674 378.25 355.206C376.429 346.105 369.694 323.169 361.685 313.522C349.49 295.137 316.179 290.951 306.167 293.135C306.167 293.135 252.288 274.204 190.217 274.204C170.558 278.573 147.805 287.492 135.427 306.241C127.054 318.619 136.519 322.623 132.332 333.909C131.24 336.821 105.757 351.383 95.381 360.121C90.6483 363.943 85.3696 373.59 81.7291 386.15C74.448 411.816 82.2751 447.311 73.1738 478.256C55.6993 537.96 20.2042 555.799 20.2042 555.799H490.56C490.196 555.617 462.164 525.4 454.701 468.608Z" fill="white"/>
<path d="M451.971 468.973C448.33 445.127 441.049 421.464 431.766 399.257C427.215 388.517 420.298 378.142 410.651 371.771C405.736 368.676 400.275 366.31 394.633 363.944C388.99 361.759 383.165 359.757 377.522 357.755C376.612 357.391 375.884 356.663 375.702 355.752C374.974 352.112 374.064 348.653 372.972 345.013C368.239 330.269 363.142 313.886 349.308 305.331C338.751 298.96 326.191 295.866 313.995 295.32C311.629 295.32 309.08 295.32 306.896 295.684H306.168C305.986 295.684 305.622 295.684 305.44 295.502C296.703 291.315 287.055 288.767 277.59 286.218C249.194 279.666 219.524 276.935 190.399 276.753C172.561 280.94 147.623 290.769 136.702 308.972C134.881 311.884 133.971 314.797 134.335 318.073C134.699 321.714 135.974 325.718 135.063 329.541C134.699 331.179 134.335 332.999 133.607 334.455C132.151 336.458 129.785 337.732 127.964 339.006C118.499 345.195 108.852 350.656 99.7503 357.027C96.6559 359.211 93.7435 361.213 91.5591 364.308C85.1882 373.409 81.3657 384.331 79.7274 395.252C76.815 417.459 79.7274 440.031 76.815 462.238C73.5386 484.445 64.9833 505.924 52.9696 524.855C44.5964 537.597 34.4029 549.428 21.4791 557.62L20.2049 552.523H490.56L488.558 557.073C483.097 550.885 478.729 544.15 474.724 537.051C462.346 516.3 455.065 492.818 451.971 468.973ZM457.432 468.245C459.434 483.717 463.257 499.007 469.081 513.569C474.906 527.949 482.187 541.965 492.381 553.797C493.837 555.435 492.563 558.53 490.378 558.348H20.0229C18.5667 558.348 17.2925 557.073 17.2925 555.617C17.2925 554.525 17.8386 553.615 18.7487 553.251C21.6611 551.613 24.5735 549.246 27.3039 546.88C51.1493 525.401 66.0755 493.546 70.9902 461.874C75.1768 432.203 67.3497 400.167 80.6376 371.953C83.732 365.4 87.5546 358.483 93.7435 354.296C105.029 345.923 117.407 339.734 128.51 331.543C128.692 331.543 128.692 331.361 128.692 331.361C128.51 331.543 128.328 331.907 128.328 332.089C129.421 329.541 129.785 327.356 129.421 324.444C128.874 320.803 127.964 315.889 129.239 312.066C129.785 309.882 130.877 307.88 131.969 306.241C145.075 286.583 168.192 277.845 190.217 272.931C196.406 273.113 202.777 272.02 208.966 272.02C217.521 272.02 226.258 273.295 234.814 274.387C259.387 278.209 283.051 284.762 307.26 290.041L305.622 289.859C311.265 288.767 316.543 289.313 322.004 290.041C356.953 295.32 368.785 310.61 378.25 343.193C379.342 346.833 380.253 350.474 381.163 354.296L379.342 352.112C396.817 358.301 416.476 363.944 427.579 380.144C431.584 385.059 434.496 390.884 437.045 396.708C446.328 420.008 453.609 443.489 457.432 468.245Z" fill="black"/>
<path d="M167.828 348.836C181.298 377.596 202.231 401.988 227.169 421.282C228.079 422.01 227.169 423.467 226.077 422.921C203.87 412.363 185.121 394.343 174.017 372.499C170.377 365.218 167.282 357.391 166.19 349.2C165.826 348.29 167.282 347.926 167.828 348.836Z" fill="black"/>
<path d="M380.981 354.843C381.527 385.241 369.15 416.367 345.486 436.026C344.94 436.572 344.212 436.39 343.666 435.844C343.12 435.298 343.302 434.57 343.848 434.024C349.127 428.927 354.405 423.648 358.41 417.46C366.783 405.446 371.88 391.248 374.246 376.868C375.338 369.769 376.067 362.124 375.52 355.025C375.338 351.566 380.799 351.202 380.981 354.843Z" fill="black"/>
<path d="M273.767 427.107C269.581 441.851 266.122 457.869 268.124 473.159C268.67 476.618 263.392 477.528 262.664 473.887C261.754 465.514 262.846 457.323 264.302 449.314C265.94 441.305 267.942 433.66 270.673 426.015C271.401 424.194 274.495 425.104 273.767 427.107Z" fill="black"/>
<path d="M331.652 424.376C337.659 437.3 341.845 450.77 345.122 464.422C345.486 465.878 344.576 467.334 343.119 467.699C341.663 468.063 340.207 467.152 339.843 465.696C338.023 455.503 335.656 445.309 332.38 435.298C331.288 432.021 330.196 428.745 328.921 425.468C328.193 423.83 330.742 422.556 331.652 424.376Z" fill="black"/>
<path d="M136.156 333.181C142.891 369.951 168.738 401.077 199.865 420.918C210.422 427.653 221.708 433.478 233.358 438.21C234.086 438.574 234.45 439.302 234.086 440.031C233.904 440.759 232.993 441.123 232.447 440.759C220.434 436.39 208.784 430.929 197.862 424.376C175.655 411.27 156.178 393.068 143.073 370.861C136.338 359.393 131.059 347.379 128.51 334.273C128.146 332.089 129.603 330.087 131.787 329.723C133.789 329.177 135.974 330.815 136.156 333.181Z" fill="black"/>
<path d="M262.845 477.164C257.748 476.618 254.108 471.885 255.2 466.788L257.202 457.141C257.93 453.319 261.571 450.588 265.393 451.134C269.216 451.498 272.31 454.775 272.31 458.779V468.609C272.492 473.705 268.124 477.71 262.845 477.164Z" fill="black"/>
<path d="M346.76 470.429C341.845 472.249 336.566 469.337 335.292 464.24L332.926 454.593C332.016 450.77 334.018 446.948 337.84 445.491C341.481 444.217 345.668 445.855 347.306 449.314L351.674 458.233C353.859 463.148 351.674 468.791 346.76 470.429Z" fill="black"/>
<path d="M430.856 464.968C430.856 464.968 441.049 522.124 437.045 555.617" stroke="black" stroke-width="2.37918" stroke-miterlimit="10" stroke-linecap="round" stroke-linejoin="round"/>
<path d="M193.129 326.628C190.581 319.347 189.489 311.884 190.035 304.239C190.035 303.511 190.581 303.147 191.309 303.147C191.855 303.147 192.401 303.693 192.401 304.239C192.947 311.156 194.949 318.255 198.226 324.262C199.864 327.903 194.403 330.269 193.129 326.628Z" fill="black"/>
<path d="M316.179 336.276C311.082 324.808 298.522 318.983 287.419 314.979C280.502 312.794 272.856 311.156 265.575 310.064C247.919 307.334 222.981 303.147 205.325 301.327C205.143 301.327 205.143 300.963 205.325 300.963C210.421 300.417 215.518 300.417 220.615 300.417C235.905 300.781 251.195 302.419 266.304 304.785C281.412 307.152 297.612 311.702 309.08 322.624C312.72 326.446 315.997 330.815 316.907 336.094C317.089 336.64 316.361 336.822 316.179 336.276Z" fill="black"/>
<path d="M333.108 383.056C329.286 401.805 304.53 413.091 262.846 396.162C219.524 378.688 200.775 337.004 196.042 324.626C221.708 276.571 203.87 243.26 203.87 243.26C263.028 238.163 314.724 307.333 314.724 307.333L322.733 341.554C323.461 344.467 324.917 347.015 327.101 348.835C330.924 355.57 335.475 371.043 333.108 383.056Z" fill="white"/>
<path d="M195.133 325.172C198.592 319.893 200.776 313.704 202.232 307.697C204.963 295.138 205.873 282.396 206.055 269.654V264.921C205.509 260.189 203.87 255.274 202.05 250.905C199.684 245.08 208.239 241.44 210.969 247.265C211.333 247.993 211.333 249.267 211.333 249.995C211.88 274.751 212.972 306.605 197.317 327.174C196.225 328.266 194.041 326.628 195.133 325.172Z" fill="black"/>
<path d="M316.726 306.97C319.457 308.608 320.367 310.792 320.731 312.976C321.823 317.345 321.459 322.078 322.551 326.628C323.461 330.997 326.192 335.184 326.92 339.734C327.83 344.467 330.56 354.478 331.652 359.393C332.016 360.485 331.288 361.759 330.014 361.941C329.286 362.123 328.74 361.941 328.194 361.577C325.827 359.575 324.735 357.573 323.279 355.024C320.913 350.656 319.275 346.651 317.818 341.737C316.544 337.368 317.09 332.635 315.998 328.085C315.088 323.716 312.54 319.529 311.629 314.979C311.083 312.794 310.901 310.428 312.54 307.698C313.632 306.605 315.452 306.241 316.726 306.97Z" fill="black"/>
<path d="M329.833 355.024C295.066 353.204 266.669 342.282 239.001 292.953C262.301 313.522 289.787 321.349 318.729 324.99L322.551 341.736C323.28 344.649 327.648 353.204 329.833 355.024Z" fill="black"/>
<path d="M328.377 348.289C334.566 359.939 338.206 374.501 334.384 387.425C331.471 396.526 323.098 403.261 313.997 405.81C292.882 411.452 268.49 402.533 249.742 392.522C226.624 379.598 209.514 357.937 198.592 334.273C197.864 332.453 200.413 330.997 201.505 332.817C205.327 340.462 209.696 347.925 214.611 354.66C219.525 361.577 225.168 367.948 231.539 373.591C250.106 390.337 275.225 400.713 300.345 400.713C326.193 399.985 336.022 386.333 330.015 361.213C329.105 357.209 327.649 353.022 325.647 349.564C324.554 348.107 327.285 346.469 328.377 348.289Z" fill="black"/>
<path d="M398.82 129.676C402.096 144.966 399.548 155.16 398.092 197.39C381.345 267.288 382.619 306.059 373.336 315.343C366.055 322.624 322.551 332.089 290.332 323.898C273.95 319.711 260.116 310.246 248.83 303.511C234.632 294.956 223.893 267.106 213.699 250.177C205.69 236.889 204.78 254.364 194.404 242.896C180.024 227.242 162.732 195.752 171.287 140.052C185.121 49.7666 256.657 39.209 309.627 49.2205C362.779 59.2319 390.083 89.4483 398.82 129.676Z" fill="white"/>
<path d="M203.324 258.915C196.953 248.357 187.852 239.62 182.027 228.698C164.37 195.57 160.73 155.342 170.923 119.301C192.22 42.4855 269.399 31.1999 336.385 53.7711C373.882 66.513 400.276 98.1855 404.099 138.049C404.463 150.791 401.186 162.623 401.004 175.183C400.094 208.311 389.719 240.166 385.714 272.02C384.804 282.032 384.804 292.589 383.348 302.783C382.984 304.967 382.62 306.97 381.892 309.336C380.253 314.251 376.613 317.709 372.608 320.439C357.5 329.723 340.39 331.361 323.279 332.271C287.602 333.727 256.294 323.352 234.996 293.682C234.268 292.589 235.725 291.315 236.635 292.407C260.48 317.891 289.058 326.082 322.915 324.444C337.295 323.716 368.058 320.986 374.428 306.97C377.523 295.502 377.523 283.488 379.343 271.474C381.345 257.276 386.806 237.436 390.083 223.419C393.723 207.583 396.818 191.565 397 175.365C397.182 167.173 397.182 158.982 397.182 150.791C397.546 142.6 395.908 135.501 393.905 127.674C386.624 96.5473 364.235 70.6996 334.019 59.2319C304.348 47.7643 269.945 44.8519 239.547 54.8633C208.603 64.6927 187.488 91.2685 179.478 122.213C175.292 137.503 173.108 153.521 172.015 169.358C171.105 185.376 172.743 201.758 179.114 216.685C183.665 227.97 191.128 237.8 199.865 245.991L208.421 254.91C212.425 258.551 206.236 263.283 203.324 258.915Z" fill="black"/>
<path d="M224.803 201.03C224.803 201.03 219.16 173.726 192.584 177.003C169.649 179.915 161.64 234.887 213.699 250.177" fill="white"/>
<path d="M211.333 226.332C207.147 223.966 204.234 219.961 204.052 215.046C204.234 211.406 204.781 207.219 203.87 203.579C203.324 200.12 199.684 199.21 196.953 199.392C194.041 199.938 192.221 203.579 191.675 206.491C191.675 206.673 191.493 207.219 191.493 207.401C191.311 208.311 189.854 208.311 189.49 207.401C187.124 200.302 192.403 192.475 200.048 193.385C210.787 194.113 212.244 205.399 210.241 213.954C209.149 217.595 210.605 220.871 212.608 223.966L212.972 224.512C213.882 225.604 212.426 227.06 211.333 226.332Z" fill="black"/>
<path d="M356.954 181.736C359.684 194.659 364.781 206.673 371.152 217.959C376.795 231.793 362.233 244.899 349.309 244.352C347.852 244.352 347.67 242.35 348.945 241.986C357.136 239.438 364.599 233.977 365.873 225.604C366.419 223.055 365.691 220.871 364.417 218.687C358.41 207.401 354.769 194.477 355.68 181.736C355.68 180.825 356.954 180.825 356.954 181.736Z" fill="black"/>
<path d="M223.892 201.212C219.706 190.473 210.604 180.279 198.409 180.461C197.316 180.279 195.496 180.643 194.404 180.643C191.31 180.825 188.761 181.917 186.395 184.102C174.745 195.751 176.747 216.32 186.213 229.244C189.489 233.795 193.676 237.799 198.409 241.076C203.141 244.352 208.42 246.901 214.063 249.085C215.337 249.449 214.791 251.451 213.517 251.269C201.321 248.721 189.671 242.714 181.662 232.703C169.284 217.777 166.736 192.839 181.48 178.277C184.757 175.364 189.307 173.18 193.858 173.18C195.314 173.18 197.498 172.816 198.955 173.18C206.6 173.544 213.881 177.367 218.613 183.374C222.8 188.47 225.166 194.659 225.894 200.848C225.894 201.94 224.256 202.304 223.892 201.212Z" fill="black"/>
<path d="M343.119 262.555C331.47 273.658 309.444 264.739 303.62 251.269C302.892 249.631 304.712 248.175 306.168 248.903C309.262 250.541 311.993 252.179 314.905 253.454C323.278 257.276 332.016 260.371 341.299 259.46C343.119 259.096 344.393 261.281 343.119 262.555Z" fill="black"/>
<path d="M289.058 200.302C284.689 200.12 281.413 196.479 281.777 192.111L281.959 187.014C282.141 182.645 285.781 179.369 290.15 179.733C294.519 179.915 297.795 183.556 297.431 187.924L297.249 193.021C297.067 197.208 293.427 200.484 289.058 200.302Z" fill="black"/>
<path d="M365.69 203.033C361.686 202.851 358.591 199.392 358.773 195.387L358.955 190.655C359.137 186.65 362.596 183.556 366.6 183.738C370.605 183.92 373.699 187.378 373.517 191.383L373.335 196.116C373.153 200.12 369.695 203.215 365.69 203.033Z" fill="black"/>
<path d="M305.44 190.473C299.433 186.468 292.881 183.738 285.599 185.194C283.233 185.558 280.867 186.286 279.411 187.924C278.865 188.652 277.59 188.47 277.59 187.378C277.772 183.738 280.867 181.371 283.779 179.915C289.422 177.003 297.249 177.549 302.346 181.371C304.166 182.463 310.355 189.198 307.079 190.655C306.35 191.019 305.986 190.837 305.44 190.473Z" fill="black"/>
<path d="M357.5 191.383C357.5 183.738 366.965 181.007 372.79 183.738C376.066 185.194 378.433 188.106 379.343 191.565C379.707 192.657 378.069 193.567 377.341 192.657C374.246 189.016 368.967 187.196 364.781 189.38C363.507 190.109 363.325 190.655 362.961 191.383C362.961 195.023 357.682 194.841 357.5 191.383Z" fill="black"/>
<path d="M314.177 160.438C318 161.712 321.823 158.254 321.094 154.067C320.73 151.883 319.82 149.699 318 148.061C312.539 143.146 289.968 138.777 276.316 145.148C264.302 150.973 296.703 154.613 314.177 160.438Z" fill="black"/>
<path d="M368.604 163.351C365.509 164.443 362.233 161.166 362.779 157.344C362.961 155.342 363.689 153.339 365.145 151.883C369.514 147.514 384.44 144.056 393.906 150.791C402.097 156.434 382.802 158.072 368.604 163.351Z" fill="black"/>
<path d="M407.059 70.3226C410.335 62.6775 410.335 54.3043 404.875 47.0233C389.038 26.0903 340.073 41.9266 312.769 33.1893C271.814 19.9014 221.028 18.2632 191.176 67.4102C183.713 79.788 180.072 83.2465 169.515 93.0759C158.593 103.269 150.038 122.018 149.31 147.684C147.672 199.197 188.082 243.976 188.082 243.976C190.084 246.706 191.904 249.072 193.542 251.075C208.104 268.549 212.655 302.224 208.286 249.072C162.962 231.598 171.153 180.812 193.178 178.082C216.478 175.17 223.759 195.921 225.033 201.017C240.687 191.006 235.044 169.709 233.224 149.868C245.42 144.407 255.795 131.301 261.256 119.47C267.263 127.843 274.544 134.396 283.281 135.124C292.565 136.034 298.025 128.207 299.846 117.103C311.859 132.94 333.156 152.598 366.649 156.421C382.667 158.241 395.955 151.506 404.875 140.403C407.241 140.767 409.425 140.949 411.61 140.767C435.091 138.4 461.303 90.8916 407.059 70.3226Z" fill="black"/>
<path d="M371.88 247.811C370.969 242.35 367.693 233.249 362.596 237.253C360.594 238.891 350.218 242.168 348.216 242.35C342.391 242.896 338.023 242.168 333.836 238.891C329.103 235.069 329.103 233.431 328.011 233.067C308.899 226.696 284.871 220.325 277.044 245.99C275.224 251.997 259.569 300.234 290.332 329.904C293.426 330.633 311.629 339.552 349.126 329.54C353.677 327.538 359.502 325.536 362.05 320.803C373.154 300.234 373.7 259.46 371.88 247.811ZM309.991 293.863C294.154 293.863 291.242 283.67 290.514 280.393C289.24 266.195 291.788 254.364 295.429 250.177C304.894 239.802 318.728 251.815 333.654 252.907C348.398 254 358.956 246.901 360.23 263.465C360.594 267.47 360.412 272.02 360.23 276.571C360.23 276.753 360.23 276.935 360.23 277.117C359.684 282.214 358.774 289.677 352.949 290.951C339.297 293.863 344.212 287.856 336.02 287.856C328.375 288.038 333.836 293.863 309.991 293.863Z" fill="black"/>
<path d="M524.599 89.4481C635.089 302.237 440.867 542.329 209.33 483.717C105.393 457.869 21.8431 367.766 4.55062 262.009C-15.1082 156.798 32.4006 43.7595 121.229 -15.7631C243.005 -99.4951 411.743 -71.6451 498.934 48.1281C499.48 48.6742 499.298 49.5843 498.57 50.1304C498.023 50.6765 497.113 50.4944 496.567 49.7663C484.554 34.2941 470.902 20.2781 455.975 7.7183C431.402 -13.2147 402.642 -29.5971 372.243 -40.7007C217.521 -96.7647 47.6908 -3.56732 13.834 158.254C-24.3915 339.552 129.785 506.47 313.631 481.532C455.429 463.694 560.823 332.817 549.173 190.473C546.625 156.07 537.523 122.031 522.415 90.7222C522.051 90.1762 522.415 89.448 522.961 89.084C523.507 88.7199 524.235 88.902 524.599 89.4481Z" fill="black"/>
</g>
</svg>
